<?xml version="1.0" encoding="iso-8859-1"?>
<!-- Generator: Adobe Illustrator 19.1.0, SVG Export Plug-In . SVG Version: 6.00 Build 0)  -->
<svg xmlns="http://www.w3.org/2000/svg" xmlns:xlink="http://www.w3.org/1999/xlink" version="1.1" id="Capa_1" x="0px" y="0px" viewBox="0 0 64.002 64.002" style="enable-background:new 0 0 64.002 64.002;" xml:space="preserve" width="512px" height="512px">
<g>
	<g>
		<path d="M32.001,0.001c-8.548,0-16.583,3.329-22.627,9.374C3.329,15.419,0,23.454,0,32.001s3.329,16.582,9.374,22.626    c6.044,6.045,14.079,9.374,22.627,9.374c8.547,0,16.583-3.329,22.627-9.374c6.045-6.044,9.374-14.079,9.374-22.626    s-3.329-16.582-9.374-22.626C48.584,3.33,40.548,0.001,32.001,0.001z M53.214,53.213c-5.666,5.667-13.2,8.788-21.213,8.788    c-8.014,0-15.547-3.121-21.213-8.788C5.121,47.547,2,40.014,2,32.001s3.121-15.546,8.788-21.212    c5.666-5.667,13.199-8.788,21.213-8.788c8.013,0,15.547,3.121,21.213,8.788c5.667,5.666,8.788,13.199,8.788,21.212    S58.881,47.547,53.214,53.213z" fill="#FFFFFF"/>
		<rect x="29.001" y="43.001" width="2" height="4" fill="#FFFFFF"/>
		<path d="M32.001,15.001c-5.972,0-9,2.019-9,6h2c0-1.862,0.796-4,7-4c4.252,0,7,2.355,7,6c0,2.765-3.933,5.345-5.447,6.105    c-0.186,0.093-4.553,2.352-4.553,8.895v1h2v-1c0-5.259,3.312-7.036,3.447-7.105c0.268-0.134,6.553-3.33,6.553-7.895    C41.001,18.291,37.3,15.001,32.001,15.001z" fill="#FFFFFF"/>
	</g>
</g>
<g>
</g>
<g>
</g>
<g>
</g>
<g>
</g>
<g>
</g>
<g>
</g>
<g>
</g>
<g>
</g>
<g>
</g>
<g>
</g>
<g>
</g>
<g>
</g>
<g>
</g>
<g>
</g>
<g>
</g>
</svg>
